<svg xmlns="http://www.w3.org/2000/svg" width="920" height="500" viewBox="0 0 920 500">
  <defs>
    <linearGradient id="bg" x1="0" y1="0" x2="920" y2="500" gradientUnits="userSpaceOnUse">
      <stop offset="0" stop-color="#151418"/>
      <stop offset="0.48" stop-color="#1b1519"/>
      <stop offset="1" stop-color="#24161b"/>
    </linearGradient>
    <radialGradient id="leftGlow" cx="0" cy="0" r="1" gradientUnits="userSpaceOnUse" gradientTransform="translate(260 246) rotate(90) scale(230 275)">
      <stop offset="0" stop-color="#d4703f" stop-opacity="0.52"/>
      <stop offset="0.42" stop-color="#d4703f" stop-opacity="0.18"/>
      <stop offset="1" stop-color="#d4703f" stop-opacity="0"/>
    </radialGradient>
    <radialGradient id="rightGlow" cx="0" cy="0" r="1" gradientUnits="userSpaceOnUse" gradientTransform="translate(660 246) rotate(90) scale(210 250)">
      <stop offset="0" stop-color="#55d8b7" stop-opacity="0.22"/>
      <stop offset="0.54" stop-color="#55d8b7" stop-opacity="0.07"/>
      <stop offset="1" stop-color="#55d8b7" stop-opacity="0"/>
    </radialGradient>
    <filter id="softShadow" x="-40%" y="-40%" width="180%" height="180%">
      <feDropShadow dx="0" dy="18" stdDeviation="20" flood-color="#000000" flood-opacity="0.34"/>
    </filter>
    <marker id="arrow" markerWidth="18" markerHeight="18" refX="15" refY="9" orient="auto" markerUnits="userSpaceOnUse">
      <path d="M3 3 L15 9 L3 15" fill="none" stroke="#f7f2ee" stroke-width="3.2" stroke-linecap="round" stroke-linejoin="round"/>
    </marker>
  </defs>

  <rect width="920" height="500" rx="0" fill="url(#bg)"/>
  <rect width="920" height="500" fill="url(#leftGlow)"/>
  <rect width="920" height="500" fill="url(#rightGlow)"/>

  <path d="M-60 384 C112 314 264 330 408 368 C556 406 662 344 980 306 L980 500 L-60 500 Z" fill="#2b1d27" opacity="0.54"/>
  <path d="M-62 92 C116 110 168 24 274 64 C372 102 446 142 572 104 C704 64 760 118 984 80" fill="none" stroke="#7a4ae5" stroke-opacity="0.16" stroke-width="24" stroke-linecap="round"/>
  <path d="M-60 360 C134 288 292 314 448 356 C598 396 720 328 984 302" fill="none" stroke="#d4703f" stroke-opacity="0.14" stroke-width="1.8"/>
  <path d="M10 410 C170 346 306 360 470 400 C638 440 748 374 932 342" fill="none" stroke="#55d8b7" stroke-opacity="0.12" stroke-width="1.4"/>
  <path d="M-90 452 C142 386 298 424 478 458 C652 492 764 438 1000 410" fill="none" stroke="#d4703f" stroke-opacity="0.10" stroke-width="1.2"/>

  <g filter="url(#softShadow)" opacity="0.92">
    <rect x="138" y="106" width="244" height="244" rx="48" fill="#19171c" fill-opacity="0.42" stroke="#ffffff" stroke-opacity="0.08"/>
    <rect x="538" y="106" width="244" height="244" rx="48" fill="#19171c" fill-opacity="0.36" stroke="#ffffff" stroke-opacity="0.08"/>
  </g>

  <path d="M418 245 H510" fill="none" stroke="#f7f2ee" stroke-width="5" stroke-linecap="round" marker-end="url(#arrow)"/>

  <g opacity="0.88">
    <text x="36" y="54" fill="#f7f2ee" font-family="-apple-system, BlinkMacSystemFont, Helvetica, Arial, sans-serif" font-size="24" font-weight="800">Ratspeak</text>
  </g>

</svg>
